RBDS019runT45_grf
version=1
nRows=21
nColumns=19
inDegrees=no
endheader
time	ground_force_r_vx	ground_force_r_vy	ground_force_r_vz	ground_force_r_px	ground_force_r_py	ground_force_r_pz	ground_force_r_mx	ground_force_r_my	ground_force_r_mz	ground_force_l_vx	ground_force_l_vy	ground_force_l_vz	ground_force_l_px	ground_force_l_py	ground_force_l_pz	ground_force_l_mx	ground_force_l_my	ground_force_l_mz
      7.49900000	      0.00000000	      0.00000000	      0.00000000	      0.00000000	      0.00000000	      0.00000000	      0.00000000	      0.00000000	      0.00000000	      0.00000000	      0.00000000	      0.00000000	      0.00000000	      0.00000000	      0.00000000	      0.00000000	      0.00000000	      0.00000000
      7.50000000	      0.00000000	      0.00000000	      0.00000000	      0.00000000	      0.00000000	      0.00000000	      0.00000000	      0.00000000	      0.00000000	      0.00000000	      0.00000000	      0.00000000	      0.00000000	      0.00000000	      0.00000000	      0.00000000	      0.00000000	      0.00000000
      7.50100000	      0.00000000	      0.00000000	      0.00000000	      0.00000000	      0.00000000	      0.00000000	      0.00000000	      0.00000000	      0.00000000	      0.00000000	      0.00000000	      0.00000000	      0.00000000	      0.00000000	      0.00000000	      0.00000000	      0.00000000	      0.00000000
      7.50200000	      0.00000000	      0.00000000	      0.00000000	      0.00000000	      0.00000000	      0.00000000	      0.00000000	      0.00000000	      0.00000000	      0.00000000	      0.00000000	      0.00000000	      0.00000000	      0.00000000	      0.00000000	      0.00000000	      0.00000000	      0.00000000
      7.50300000	      0.00000000	      0.00000000	      0.00000000	      0.00000000	      0.00000000	      0.00000000	      0.00000000	      0.00000000	      0.00000000	      0.00000000	      0.00000000	      0.00000000	      0.00000000	      0.00000000	      0.00000000	      0.00000000	      0.00000000	      0.00000000
      7.50400000	     14.27079581	     24.69701924	     -0.72044181	      0.48687150	      0.00000000	      0.21858615	      0.00000000	     -2.03765575	      0.00000000	      0.00000000	      0.00000000	      0.00000000	      0.00000000	      0.00000000	      0.00000000	      0.00000000	      0.00000000	      0.00000000
      7.50500000	     35.67698953	     61.74254810	     -1.80110452	      1.21717875	      0.00000000	      0.54646538	      0.00000000	     -5.09413937	      0.00000000	      0.00000000	      0.00000000	      0.00000000	      0.00000000	      0.00000000	      0.00000000	      0.00000000	      0.00000000	      0.00000000
      7.50600000	     57.08318325	     98.78807695	     -2.88176723	      1.94748600	      0.00000000	      0.87434460	      0.00000000	     -8.15062299	      0.00000000	      0.00000000	      0.00000000	      0.00000000	      0.00000000	      0.00000000	      0.00000000	      0.00000000	      0.00000000	      0.00000000
      7.50700000	     68.62266524	    135.95702987	     -3.55942801	      2.43404278	      0.00000000	      1.09289362	      0.00000000	    -10.00036258	      0.00000000	      0.00000000	      0.00000000	      0.00000000	      0.00000000	      0.00000000	      0.00000000	      0.00000000	      0.00000000	      0.00000000
      7.50800000	     60.42872379	    173.37283091	     -3.43108495	      2.43309859	      0.00000000	      1.09278221	      0.00000000	     -9.43661411	      0.00000000	      0.00000000	      0.00000000	      0.00000000	      0.00000000	      0.00000000	      0.00000000	      0.00000000	      0.00000000	      0.00000000
      7.50900000	     52.23478234	    210.78863194	     -3.30274189	      2.43215440	      0.00000000	      1.09267080	      0.00000000	     -8.87286565	      0.00000000	      0.00000000	      0.00000000	      0.00000000	      0.00000000	      0.00000000	      0.00000000	      0.00000000	      0.00000000	      0.00000000
      7.51000000	     44.04084089	    248.20443298	     -3.17439883	      2.43121021	      0.00000000	      1.09255939	      0.00000000	     -8.30911718	      0.00000000	      0.00000000	      0.00000000	      0.00000000	      0.00000000	      0.00000000	      0.00000000	      0.00000000	      0.00000000	      0.00000000
      7.51100000	     35.87434700	    285.25119461	     -3.09393697	      2.43027121	      0.00000000	      1.09245247	      0.00000000	     -7.74596653	      0.00000000	      0.00000000	      0.00000000	      0.00000000	      0.00000000	      0.00000000	      0.00000000	      0.00000000	      0.00000000	      0.00000000
      7.51200000	     27.70785311	    322.29795625	     -3.01347512	      2.42933221	      0.00000000	      1.09234555	      0.00000000	     -7.18281588	      0.00000000	      0.00000000	      0.00000000	      0.00000000	      0.00000000	      0.00000000	      0.00000000	      0.00000000	      0.00000000	      0.00000000
      7.51300000	     19.54135922	    359.34471788	     -2.93301327	      2.42839322	      0.00000000	      1.09223863	      0.00000000	     -6.61966524	      0.00000000	      0.00000000	      0.00000000	      0.00000000	      0.00000000	      0.00000000	      0.00000000	      0.00000000	      0.00000000	      0.00000000
      7.51400000	     11.44532411	    395.83292969	     -2.91013054	      2.42744937	      0.00000000	      1.09213743	      0.00000000	     -6.06490122	      0.00000000	      0.00000000	      0.00000000	      0.00000000	      0.00000000	      0.00000000	      0.00000000	      0.00000000	      0.00000000	      0.00000000
      7.51500000	      3.38451839	    432.04186657	     -2.91603736	      2.42650310	      0.00000000	      1.09203909	      0.00000000	     -5.51433053	      0.00000000	      0.00000000	      0.00000000	      0.00000000	      0.00000000	      0.00000000	      0.00000000	      0.00000000	      0.00000000	      0.00000000
      7.51600000	     -4.67628732	    468.25080346	     -2.92194419	      2.42555682	      0.00000000	      1.09194075	      0.00000000	     -4.96375983	      0.00000000	      0.00000000	      0.00000000	      0.00000000	      0.00000000	      0.00000000	      0.00000000	      0.00000000	      0.00000000	      0.00000000
      7.51700000	    -12.67399449	    504.03786716	     -2.96836869	      2.42460334	      0.00000000	      1.09184655	      0.00000000	     -4.42117687	      0.00000000	      0.00000000	      0.00000000	      0.00000000	      0.00000000	      0.00000000	      0.00000000	      0.00000000	      0.00000000	      0.00000000
      7.51800000	    -20.54550454	    538.98118450	     -3.09582855	      2.42363543	      0.00000000	      1.09176060	      0.00000000	     -3.89456936	      0.00000000	      0.00000000	      0.00000000	      0.00000000	      0.00000000	      0.00000000	      0.00000000	      0.00000000	      0.00000000	      0.00000000
      7.51900000	    -28.41701459	    573.92450184	     -3.22328840	      2.42266753	      0.00000000	      1.09167464	      0.00000000	     -3.36796185	      0.00000000	      0.00000000	      0.00000000	      0.00000000	      0.00000000	      0.00000000	      0.00000000	      0.00000000	      0.00000000	      0.00000000
